<svg width="100" height="100" viewBox="0 0 100 100" fill="none" xmlns="http://www.w3.org/2000/svg">
<path d="M97.5001 43.4951C97.4969 43.493 97.4946 43.4898 97.4922 43.4875L56.7002 2.69727C54.9614 0.957422 52.6497 0 50.1909 0C47.7319 0 45.4202 0.957422 43.6807 2.69707L2.90982 43.4668C2.89615 43.4805 2.8817 43.4949 2.86881 43.5088C-0.701897 47.0998 -0.695647 52.9264 2.88638 56.5084C4.52271 58.1457 6.68326 59.0934 8.99439 59.1932C9.08892 59.2023 9.18365 59.2068 9.27896 59.2068H10.904V89.2256C10.904 95.1666 15.7379 99.9998 21.679 99.9998H37.6381C39.2563 99.9998 40.5678 98.6875 40.5678 97.0701V73.5352C40.5678 70.8244 42.7735 68.6195 45.4842 68.6195H54.8973C57.6083 68.6195 59.8129 70.8246 59.8129 73.5352V97.0703C59.8129 98.6877 61.1245 100 62.7426 100H78.7018C84.6436 100 89.4768 95.1668 89.4768 89.2258V59.207H90.9844C93.4426 59.207 95.7543 58.2494 97.4946 56.5092C101.081 52.9219 101.082 47.0846 97.4999 43.4949L97.5001 43.4951ZM93.351 52.3666C93.041 52.6785 92.6722 52.9258 92.266 53.0942C91.8598 53.2627 91.4242 53.3489 90.9844 53.3479H86.5469C84.9288 53.3479 83.6172 54.6592 83.6172 56.2775V89.2258C83.6172 91.9357 81.4124 94.1406 78.7016 94.1406H65.6723V73.5352C65.6723 67.5941 60.8389 62.7602 54.8971 62.7602H45.4844C39.5426 62.7602 34.7086 67.5941 34.7086 73.5352V94.1406H21.6794C18.9692 94.1406 16.7635 91.9355 16.7635 89.2258V56.2773C16.7635 54.659 15.452 53.3477 13.8338 53.3477H9.47271C9.427 53.3444 9.38122 53.3423 9.33541 53.3414C8.46256 53.3262 7.644 52.9799 7.03072 52.3656C5.72603 51.0609 5.72603 48.9379 7.03072 47.6324C7.03131 47.6324 7.03131 47.6316 7.03209 47.6309L7.03443 47.6285L47.8249 6.83984C48.1347 6.52794 48.5034 6.28066 48.9095 6.11235C49.3157 5.94404 49.7512 5.85805 50.1909 5.85938C51.0842 5.85938 51.9243 6.20723 52.5567 6.83984L93.3379 47.6203L93.3571 47.6387C94.6549 48.9457 94.6526 51.0645 93.351 52.3666Z" fill="white"/>
</svg>
