<svg width="100" height="100" viewBox="0 0 100 100" fill="none" xmlns="http://www.w3.org/2000/svg">
<path d="M49.9999 94.9679C48.5761 94.9679 47.2038 94.4521 46.1341 93.5152C42.0943 89.9828 38.1995 86.6632 34.7632 83.7351L34.7456 83.7199C24.671 75.1346 15.9713 67.7203 9.91814 60.4166C3.15175 52.252 0 44.5102 0 36.053C0 27.8362 2.81757 20.2556 7.93299 14.7067C13.1095 9.0923 20.2125 6.00012 27.9357 6.00012C33.7081 6.00012 38.9945 7.82512 43.6478 11.4239C45.996 13.2403 48.1245 15.4636 49.9999 18.0567C51.8759 15.4636 54.0038 13.2403 56.3528 11.4239C61.0061 7.82512 66.2924 6.00012 72.0649 6.00012C79.7873 6.00012 86.891 9.0923 92.0676 14.7067C97.183 20.2556 99.9998 27.8362 99.9998 36.053C99.9998 44.51 96.8488 52.2518 90.0824 60.4158C84.0291 67.7203 75.3301 75.1338 65.2571 83.7183C61.8147 86.6511 57.9139 89.9759 53.8649 93.5168C52.7949 94.4527 51.4215 94.9683 49.9999 94.9679ZM27.9357 11.8579C21.8681 11.8579 16.2941 14.2796 12.239 18.6771C8.12381 23.1411 5.85702 29.3118 5.85702 36.053C5.85702 43.1659 8.50057 49.5272 14.4279 56.6791C20.1568 63.592 28.6781 70.8537 38.5445 79.2621L38.5626 79.2773C42.0118 82.2168 45.922 85.5494 49.9915 89.1078C54.0854 85.5425 58.0016 82.2047 61.4577 79.2605C71.3233 70.8521 79.8438 63.592 85.5727 56.6791C91.4992 49.5272 94.1428 43.1659 94.1428 36.053C94.1428 29.3116 91.876 23.1409 87.7608 18.6771C83.7065 14.2796 78.1319 11.8579 72.0649 11.8579C67.62 11.8579 63.5389 13.271 59.9356 16.0571C56.7245 18.5413 54.4876 21.6815 53.1759 23.8788C52.5017 25.0087 51.3145 25.6831 49.9999 25.6831C48.6853 25.6831 47.4981 25.0087 46.8237 23.8788C45.5132 21.6815 43.2761 18.5413 40.064 16.0571C36.4609 13.271 32.3798 11.8579 27.9357 11.8579Z" fill="white"/>
</svg>
