<svg width="100" height="100" viewBox="0 0 100 100" fill="none" xmlns="http://www.w3.org/2000/svg">
<path d="M49.834 91.5283H12.4584C10.166 91.5283 8.30566 89.6678 8.30566 87.3756V12.6246C8.30566 10.3322 10.1662 8.47188 12.4584 8.47188H49.834C52.1305 8.47188 53.9867 6.61563 53.9867 4.31914C53.9867 2.02266 52.1305 0.166016 49.834 0.166016H12.4584C5.58965 0.166016 0 5.75586 0 12.6246V87.3754C0 94.2441 5.58965 99.8338 12.4584 99.8338H49.834C52.1305 99.8338 53.9867 97.9775 53.9867 95.6811C53.9867 93.3846 52.1305 91.5283 49.834 91.5283Z" fill="black"/>
<path d="M98.7625 47.0431L73.5133 22.1261C71.8854 20.5148 69.2525 20.5357 67.6412 22.1677C66.0299 23.7997 66.0465 26.4285 67.6828 28.0398L85.7268 45.847H37.3754C35.0789 45.847 33.2227 47.7033 33.2227 49.9997C33.2227 52.2962 35.0789 54.1527 37.3754 54.1527H85.7268L67.6828 71.9599C66.0467 73.5712 66.0342 76.1999 67.6412 77.832C68.0275 78.2239 68.4878 78.5352 68.9954 78.7476C69.503 78.96 70.0478 79.0695 70.598 79.0695C71.6529 79.0695 72.7076 78.6708 73.5133 77.8734L98.7625 52.9564C99.154 52.5698 99.465 52.1095 99.6774 51.6019C99.8898 51.0944 99.9995 50.5497 100 49.9995C100 48.887 99.5557 47.8281 98.7625 47.0431Z" fill="black"/>
</svg>
