<svg width="90" height="90" viewBox="0 0 90 90" fill="none" xmlns="http://www.w3.org/2000/svg">
<path d="M26.5002 47.75L23.2502 57.5C22.8079 58.7883 22.7374 60.1751 23.047 61.5016C23.3565 62.828 24.0334 64.0405 25.0002 65C25.9624 65.9626 27.1748 66.6367 28.5003 66.9459C29.8257 67.2552 31.2113 67.1873 32.5002 66.75L42.2918 63.5C42.7445 63.341 43.1569 63.085 43.5002 62.75L87.6668 18.5416C89.0281 17.175 89.7924 15.3247 89.7924 13.3958C89.7924 11.4669 89.0281 9.6166 87.6668 8.24998L81.7502 2.33331C80.3836 0.972057 78.5332 0.207764 76.6043 0.207764C74.6754 0.207764 72.8251 0.972057 71.4585 2.33331L27.2502 46.5416C26.9151 46.885 26.6591 47.2974 26.5002 47.75ZM75.8752 6.74998C76.0746 6.56845 76.3346 6.46785 76.6043 6.46785C76.874 6.46785 77.134 6.56845 77.3335 6.74998L83.2502 12.6666C83.4317 12.8661 83.5323 13.1261 83.5323 13.3958C83.5323 13.6655 83.4317 13.9255 83.2502 14.125L76.6252 20.75L69.2502 13.375L75.8752 6.74998ZM29.1668 59.5L32.2085 50.4166L64.8335 17.7916L72.2085 25.1666L39.5835 57.7916L30.5002 60.8333C30.3141 60.9004 30.1128 60.9132 29.9198 60.8701C29.7267 60.827 29.55 60.7299 29.4101 60.59C29.2703 60.4502 29.1731 60.2734 29.13 60.0804C29.087 59.8873 29.0997 59.686 29.1668 59.5ZM89.7918 38.6666V74.1666C89.7918 78.3107 88.1456 82.2849 85.2154 85.2152C82.2851 88.1455 78.3108 89.7916 74.1668 89.7916H15.8335C11.6895 89.7916 7.71521 88.1455 4.78495 85.2152C1.8547 82.2849 0.208496 78.3107 0.208496 74.1666V15.8333C0.208496 11.6893 1.8547 7.71502 4.78495 4.78477C7.71521 1.85451 11.6895 0.20831 15.8335 0.20831H51.2918C52.1206 0.20831 52.9155 0.53755 53.5015 1.1236C54.0876 1.70965 54.4168 2.50451 54.4168 3.33331C54.4168 4.16211 54.0876 4.95697 53.5015 5.54302C52.9155 6.12907 52.1206 6.45831 51.2918 6.45831H15.8335C13.3471 6.45831 10.9625 7.44603 9.20437 9.20418C7.44622 10.9623 6.4585 13.3469 6.4585 15.8333V74.1666C6.4585 76.6531 7.44622 79.0376 9.20437 80.7958C10.9625 82.5539 13.3471 83.5416 15.8335 83.5416H74.1668C76.6532 83.5416 79.0378 82.5539 80.796 80.7958C82.5541 79.0376 83.5418 76.6531 83.5418 74.1666V38.7083C83.5418 37.8795 83.8711 37.0847 84.4571 36.4986C85.0432 35.9126 85.838 35.5833 86.6668 35.5833C87.4956 35.5833 88.2905 35.9126 88.8765 36.4986C89.4626 37.0847 89.7918 37.8795 89.7918 38.7083V38.6666Z" fill="white"/>
</svg>
