<svg width="30" height="30" viewBox="0 0 30 30" fill="none" xmlns="http://www.w3.org/2000/svg">
<g clip-path="url(#clip0_503_2)">
<path d="M25.9091 0H4.09091C1.83156 0 0 1.83156 0 4.09091V25.9091C0 28.1684 1.83156 30 4.09091 30H25.9091C28.1684 30 30 28.1684 30 25.9091V4.09091C30 1.83156 28.1684 0 25.9091 0Z" fill="#1C8ADB"/>
<path d="M23.1712 7.75568L22.861 7.86818L6.0235 13.9347C5.90418 13.9716 5.80048 14.047 5.72864 14.1492C5.65681 14.2513 5.6209 14.3745 5.62656 14.4992C5.63221 14.624 5.6791 14.7434 5.75988 14.8386C5.84066 14.9339 5.95077 14.9996 6.07293 15.0256L10.4315 16.2188L11.2445 18.6051L12.0576 20.9915C12.1043 21.1085 12.1789 21.2123 12.2748 21.2939C12.3707 21.3755 12.4851 21.4325 12.6081 21.4599C12.731 21.4873 12.8588 21.4842 12.9803 21.451C13.1018 21.4178 13.2134 21.3554 13.3053 21.2693L15.557 19.142L19.9786 22.1403C20.519 22.5085 21.2894 22.2358 21.4275 21.629L24.3559 8.68977C24.4991 8.04887 23.8241 7.52216 23.1712 7.75568ZM21.0218 10.6278L13.4144 16.846L13.0565 17.1392C12.9778 17.2016 12.9265 17.292 12.9133 17.3915L12.8332 18.0528L12.6133 19.9108C12.6151 19.9334 12.6078 19.9558 12.5931 19.9731C12.5784 19.9903 12.5575 20.001 12.5349 20.0028C12.5123 20.0047 12.4899 19.9974 12.4726 19.9827C12.4553 19.968 12.4446 19.947 12.4428 19.9244L11.8241 18.0682L11.1849 16.1676C11.1578 16.0822 11.1614 15.99 11.195 15.9069C11.2286 15.8239 11.2901 15.7551 11.369 15.7125L19.2849 11.175L20.7746 10.3227C20.9911 10.1966 21.2127 10.471 21.0218 10.6278Z" fill="white"/>
</g>
<defs>
<clipPath id="clip0_503_2">
<rect width="30" height="30" fill="white"/>
</clipPath>
</defs>
</svg>
