<svg width="30" height="30" viewBox="0 0 30 30" fill="none" xmlns="http://www.w3.org/2000/svg">
<g clip-path="url(#clip0_481_340)">
<path d="M23.6019 0H6.39813C2.86454 0 0 2.86454 0 6.39813V23.6019C0 27.1355 2.86454 30 6.39813 30H23.6019C27.1355 30 30 27.1355 30 23.6019V6.39813C30 2.86454 27.1355 0 23.6019 0Z" fill="#2CB742"/>
<path fill-rule="evenodd" clip-rule="evenodd" d="M14.5713 6.22234C13.1194 6.29747 11.7092 6.73398 10.4687 7.49224C9.22817 8.25051 8.19666 9.30653 7.46772 10.5645C6.73879 11.8224 6.33551 13.2425 6.29449 14.6958C6.25347 16.1491 6.576 17.5897 7.23282 18.8868L6.30122 23.3778C6.28932 23.4336 6.29173 23.4915 6.30821 23.5461C6.32469 23.6007 6.35472 23.6503 6.3955 23.6902C6.43628 23.7301 6.48649 23.759 6.54146 23.7743C6.59642 23.7896 6.65437 23.7907 6.70989 23.7776L11.113 22.7362C12.422 23.3825 13.8721 23.6906 15.3309 23.6321C16.7896 23.5736 18.2104 23.1504 19.4635 22.4013C20.7165 21.6522 21.7618 20.601 22.5039 19.3437C23.246 18.0865 23.6612 16.6634 23.7115 15.2043C23.75 14.0007 23.5387 12.8021 23.0909 11.6842C22.6431 10.5663 21.9686 9.55326 21.1099 8.70897C20.2512 7.86469 19.2268 7.20747 18.1015 6.77874C16.9761 6.35001 15.7741 6.15906 14.5713 6.21795V6.22234ZM19.8269 19.7568C19.1943 20.3931 18.4417 20.8974 17.6127 21.2406C16.7837 21.5838 15.8948 21.7591 14.9976 21.7563C13.9298 21.7563 12.9103 21.5146 11.9611 21.04L11.3459 20.7368L8.64779 21.3739L9.21905 18.6187L8.91145 18.0255C8.42178 17.0665 8.16865 16.0043 8.1732 14.9275C8.17968 13.5802 8.58404 12.2649 9.33553 11.1466C10.087 10.0283 11.1521 9.15702 12.3971 8.64203C13.6421 8.12703 15.0115 7.99133 16.3333 8.25195C17.6552 8.51257 18.8706 9.1579 19.8269 10.1069C21.1045 11.3886 21.8219 13.1244 21.8219 14.9341C21.8219 16.7437 21.1045 18.4796 19.8269 19.7612V19.7568Z" fill="white"/>
<path fill-rule="evenodd" clip-rule="evenodd" d="M19.2298 16.817L17.5423 16.3336C17.4333 16.3018 17.3178 16.3002 17.2079 16.3288C17.098 16.3574 16.998 16.4153 16.9183 16.4962L16.5053 16.9181C16.4203 17.0048 16.3115 17.0645 16.1926 17.0895C16.0737 17.1146 15.9501 17.1038 15.8373 17.0587C15.0376 16.7379 13.359 15.2439 12.9283 14.4968C12.8672 14.3907 12.8392 14.2688 12.8478 14.1467C12.8564 14.0246 12.9013 13.9078 12.9766 13.8113L13.337 13.3455C13.4062 13.2562 13.4501 13.1499 13.4641 13.0378C13.478 12.9257 13.4614 12.8118 13.4161 12.7083L12.7042 11.1C12.6645 11.0109 12.6047 10.9323 12.5293 10.8703C12.454 10.8084 12.3653 10.7648 12.2702 10.743C12.1752 10.7213 12.0763 10.722 11.9816 10.745C11.8868 10.7681 11.7987 10.8129 11.7243 10.8759C11.2497 11.2714 10.6916 11.8778 10.6257 12.5501C10.5026 13.7366 11.0124 15.2263 12.9283 17.0148C15.1474 19.0845 16.9227 19.3569 18.0784 19.0801C18.7332 18.9219 19.2561 18.2847 19.5857 17.7618C19.6389 17.6796 19.6722 17.5861 19.6829 17.4887C19.6935 17.3914 19.6813 17.2929 19.6472 17.2011C19.613 17.1094 19.5579 17.0268 19.4862 16.9601C19.4145 16.8934 19.3238 16.8444 19.2298 16.817Z" fill="white"/>
</g>
<defs>
<clipPath id="clip0_481_340">
<rect width="30" height="30" fill="white"/>
</clipPath>
</defs>
</svg>
